# xmcd CD database file generated by Grip 2.96
# 
# Track frame offsets:
#       150
#       15010
#       24705
#       38162
#       52945
#       68420
#       81775
#       93937
#       109037
#       124312
#       140545
#       151012
#       168730
#       186395
#       201757
#       216847
#       239072
#       251735
# 
# Disc length: 3497 seconds
# 
# Revision: 0
# Processed by: cddbd v1.4b42PL1 Copyright (c) Steve Scherf et al.
# Submitted via: Grip 2.96
# 
DISCID=f10da712
DTITLE=Foster and Allen - Souvenirs
DYEAR=1900
DGENRE=
TTITLE0=My Happiness
TTITLE1=From a Jack to a King
TTITLE2=I Can't Stop Loving You
TTITLE3=The Old Thrashing Mill
TTITLE4=Sweet Dreams
TTITLE5=Moonlight in Mayo
TTITLE6=Your Old Love Letters
TTITLE7=Let the Rest of The World Go By
TTITLE8=Reels: Macks Ramblers, Buffalo Girls, Sunshine Reel
TTITLE9=Tar and Cement
TTITLE10=Westmeath Bachelor
TTITLE11=Farewell Party
TTITLE12=Candlelight and Wine
TTITLE13=the Moon, The Stars and Me
TTITLE14=Under The Bridges of Paris
TTITLE15=Till I Gain Control Again
TTITLE16=The Land I Love So Well
TTITLE17=Jiggs: The Cobbler, Pet of the Pipers
EXTD=
EXTT0=
EXTT1=
EXTT2=
EXTT3=
EXTT4=
EXTT5=
EXTT6=
EXTT7=
EXTT8=
EXTT9=
EXTT10=
EXTT11=
EXTT12=
EXTT13=
EXTT14=
EXTT15=
EXTT16=
EXTT17=
PLAYORDER=
